<?xml version="1.0" encoding="utf-8"?>
<!DOCTYPE svg PUBLIC "-//W3C//DTD SVG 20010904//EN" "http://www.w3.org/TR/2001/REC-SVG-20010904/DTD/svg10.dtd">
<svg version="1.0" xmlns="http://www.w3.org/2000/svg" width="514pt" height="514pt" viewBox="0 0 514 514" style="" preserveAspectRatio="xMidYMid meet">
<g fill="#000000FF" stroke="#000000FF">
<path d="M 96.500 2.082 C 92.965 2.599 87.008 4.668 82.000 7.119 C 73.863 11.101 72.325 12.458 45.976 38.889 C 15.721 69.239 12.473 73.486 7.003 89.852 C -8.004 134.752 15.364 212.306 67.310 290.000 C 126.171 378.037 208.809 448.566 300.500 489.021 C 345.186 508.738 390.631 516.880 417.323 509.954 C 436.662 504.935 442.210 500.977 472.504 470.587 C 500.062 442.941 505.649 436.003 509.090 425.150 C 511.733 416.816 511.998 404.682 509.704 397.000 C 506.004 384.608 502.670 380.613 462.031 339.876 C 424.145 301.900 423.354 301.181 414.804 296.990 C 406.901 293.115 405.249 292.682 396.664 292.233 C 385.075 291.627 376.632 293.853 367.065 300.037 C 363.430 302.386 351.540 313.201 339.275 325.315 L 317.837 346.488 308.168 341.497 C 258.069 315.637 191.015 247.704 169.982 201.500 L 167.251 195.500 189.417 173.000 C 201.609 160.625 213.026 148.214 214.788 145.419 C 224.678 129.734 225.011 111.833 215.724 95.000 C 211.390 87.143 136.810 12.552 129.000 8.262 C 118.502 2.496 107.709 0.444 96.500 2.082 M 114.554 29.467 C 118.244 31.307 128.792 41.275 156.087 68.717 C 195.357 108.197 197.000 110.248 197.000 119.793 C 197.000 129.087 193.889 133.288 167.963 159.000 C 154.931 171.925 143.478 184.046 142.512 185.936 C 139.332 192.159 140.766 199.618 147.898 213.958 C 175.849 270.155 241.803 336.128 300.283 366.386 C 311.509 372.194 313.739 373.000 318.583 373.000 C 321.693 373.000 325.495 372.292 327.300 371.376 C 329.060 370.483 341.300 359.093 354.500 346.066 C 381.035 319.878 384.339 317.498 394.000 317.619 C 397.620 317.665 401.038 318.465 404.000 319.961 C 407.046 321.499 420.191 333.905 444.695 358.367 C 484.326 397.930 485.970 400.013 485.990 410.663 C 486.008 420.058 482.291 425.130 455.500 452.265 C 441.443 466.503 429.512 477.727 426.702 479.358 C 414.879 486.216 400.629 488.771 384.005 487.013 C 342.994 482.679 294.757 462.730 240.500 427.666 C 181.078 389.264 125.754 333.431 84.766 270.500 C 58.617 230.352 40.212 189.561 31.298 152.000 C 28.843 141.654 28.568 138.644 28.556 122.000 C 28.544 104.238 28.651 103.230 31.238 96.720 C 32.720 92.991 35.500 87.591 37.415 84.720 C 42.953 76.418 88.622 31.511 94.000 29.079 C 100.390 26.189 108.280 26.338 114.554 29.467 "/></g>
</svg>
