<?xml version="1.0" encoding="utf-8"?>
<!DOCTYPE svg PUBLIC "-//W3C//DTD SVG 20010904//EN" "http://www.w3.org/TR/2001/REC-SVG-20010904/DTD/svg10.dtd">
<svg version="1.0" xmlns="http://www.w3.org/2000/svg" width="514pt" height="514pt" viewBox="0 0 514 514" style="" preserveAspectRatio="xMidYMid meet">
<g fill="#000000FF" stroke="#000000FF">
<path d="M 213.500 85.863 C 211.300 86.864 208.917 88.387 208.205 89.248 C 207.156 90.516 206.218 90.623 203.272 89.809 C 197.362 88.178 185.174 89.202 179.924 91.770 C 172.507 95.400 167.377 100.488 163.792 107.772 C 160.794 113.862 160.496 115.299 160.458 123.837 L 160.416 133.215 156.840 134.444 C 147.636 137.608 139.400 145.653 135.947 154.853 C 134.263 159.338 133.897 162.199 134.164 168.755 L 134.500 177.010 131.000 178.099 C 115.980 182.772 104.923 200.727 107.739 215.872 C 108.610 220.555 110.557 226.105 112.749 230.154 C 112.943 230.514 111.035 231.841 108.509 233.103 C 105.982 234.365 101.754 237.682 99.113 240.474 C 87.611 252.635 86.814 271.298 97.210 285.033 L 101.189 290.290 84.486 307.014 L 67.783 323.739 63.141 322.297 C 60.160 321.371 55.818 321.001 51.000 321.264 C 39.867 321.871 35.944 324.317 19.906 340.653 C 4.325 356.523 2.478 359.934 2.619 372.581 C 2.745 383.818 5.527 388.670 20.729 404.169 C 33.893 417.591 37.052 420.000 41.486 420.000 C 47.158 420.000 51.925 413.820 50.532 408.270 C 50.118 406.624 44.646 400.229 37.039 392.500 C 30.000 385.350 23.736 378.517 23.120 377.316 C 21.580 374.313 21.715 368.450 23.400 365.200 C 24.170 363.715 29.730 357.695 35.755 351.822 C 47.811 340.073 50.996 338.503 57.447 341.131 C 60.836 342.511 158.968 438.583 169.017 450.358 C 178.281 461.213 177.586 464.650 163.159 479.328 C 157.297 485.292 151.285 490.809 149.800 491.586 C 146.559 493.283 140.697 493.425 137.684 491.880 C 136.483 491.264 129.650 485.000 122.500 477.961 C 108.833 464.507 106.120 462.879 100.941 465.025 C 95.284 467.367 93.426 473.056 96.424 478.852 C 98.706 483.267 123.282 506.474 128.189 508.850 C 138.234 513.712 148.960 513.626 158.721 508.604 C 164.849 505.452 187.990 482.128 191.070 476.000 C 194.509 469.157 194.921 457.791 192.018 449.829 L 189.777 443.684 210.139 423.427 L 230.500 403.170 236.313 402.462 C 239.510 402.072 245.145 402.052 248.837 402.415 C 252.528 402.779 261.612 403.070 269.024 403.062 L 282.500 403.047 303.114 423.628 L 323.728 444.210 321.762 449.355 C 320.212 453.410 319.887 456.195 320.227 462.500 C 320.857 474.181 323.123 477.866 339.653 494.094 C 355.523 509.675 358.934 511.522 371.581 511.381 C 385.548 511.225 383.420 512.979 448.209 448.200 C 513.062 383.358 511.374 385.405 511.430 371.500 C 511.481 358.592 509.753 355.513 493.120 338.881 C 480.250 326.011 477.782 323.995 472.500 322.033 C 465.268 319.347 453.660 319.537 448.105 322.432 L 444.709 324.202 427.699 307.192 L 410.689 290.182 414.336 285.920 C 420.089 279.200 422.274 272.173 421.775 262.000 C 421.350 253.333 419.657 248.513 414.668 241.765 C 412.100 238.292 403.667 232.551 399.000 231.099 L 395.500 230.010 395.500 220.255 C 395.500 211.595 395.186 209.860 392.700 204.797 C 389.291 197.856 381.928 190.990 374.663 187.979 L 369.333 185.770 369.408 176.635 C 369.472 168.716 369.123 166.732 366.787 161.730 C 363.145 153.931 355.546 146.672 348.232 144.003 L 342.500 141.912 342.489 131.706 C 342.480 122.594 342.194 120.964 339.823 116.500 C 333.851 105.253 323.064 98.436 309.870 97.570 C 305.691 97.295 286.798 94.130 267.885 90.536 C 230.083 83.351 220.779 82.552 213.500 85.863 M 315.961 118.480 C 321.968 121.586 324.922 128.272 323.541 135.634 C 323.000 138.518 320.296 141.900 310.430 152.033 C 299.091 163.678 298.000 165.122 298.000 168.476 C 298.000 173.575 302.408 178.000 307.486 178.000 C 310.650 178.000 312.158 177.018 319.001 170.499 C 323.332 166.373 328.058 162.548 329.503 161.999 C 336.387 159.381 344.214 162.022 348.005 168.241 C 350.217 171.868 350.650 178.865 348.878 182.316 C 348.261 183.517 342.671 189.681 336.456 196.013 C 329.925 202.668 324.865 208.689 324.465 210.283 C 323.021 216.035 328.087 222.000 334.416 222.000 C 336.125 222.000 339.589 219.641 345.216 214.644 C 354.939 206.011 356.649 205.000 361.533 205.000 C 371.018 205.000 378.236 213.598 376.503 222.833 C 375.963 225.715 373.524 228.832 365.031 237.496 C 359.099 243.548 353.740 249.483 353.123 250.684 C 351.416 254.004 351.771 257.439 354.131 260.440 C 359.102 266.759 364.774 265.851 373.043 257.414 C 379.723 250.598 382.621 249.000 388.302 249.000 C 399.055 249.000 406.244 260.716 401.373 270.300 C 400.479 272.060 393.852 279.474 386.646 286.775 C 374.333 299.253 373.545 300.286 373.545 303.969 C 373.545 306.692 374.254 308.641 375.868 310.359 C 380.587 315.383 385.742 314.577 392.765 307.719 L 397.030 303.554 413.015 319.515 C 421.807 328.294 429.000 335.930 429.000 336.484 C 429.000 337.039 408.191 358.305 382.757 383.743 L 336.515 429.993 319.858 413.358 L 303.201 396.723 311.635 388.612 C 321.234 379.379 322.800 376.111 320.159 370.824 C 318.126 366.753 314.007 364.620 309.917 365.518 C 308.142 365.908 304.152 368.845 300.202 372.669 C 288.989 383.525 288.908 383.546 259.082 383.235 C 232.499 382.959 225.641 383.718 219.244 387.647 C 217.735 388.574 207.386 398.367 196.247 409.410 L 175.995 429.487 129.501 383.001 L 83.007 336.515 99.579 319.920 L 116.152 303.326 120.326 305.413 C 123.679 307.090 126.368 307.500 134.000 307.500 C 142.166 307.500 144.272 307.134 149.000 304.892 C 159.257 300.028 167.084 289.389 168.553 278.313 L 169.224 273.252 174.189 272.664 C 188.924 270.919 201.912 257.979 203.649 243.314 L 204.249 238.249 209.202 237.663 C 224.142 235.893 237.373 222.580 238.784 207.897 L 239.235 203.201 244.424 202.553 C 255.308 201.193 265.304 194.057 270.715 183.784 C 273.222 179.025 273.498 177.507 273.498 168.500 C 273.497 160.306 273.116 157.751 271.387 154.350 L 269.278 150.199 284.889 134.718 C 293.475 126.204 301.400 118.748 302.500 118.149 C 305.385 116.579 312.630 116.757 315.961 118.480 M 466.500 340.898 C 471.569 343.248 490.606 362.583 491.549 366.340 C 491.933 367.869 491.999 370.972 491.695 373.235 C 491.175 377.116 487.969 380.528 435.322 433.240 C 404.620 463.979 378.285 489.775 376.800 490.565 C 373.358 492.394 367.672 492.404 364.200 490.586 C 362.715 489.809 356.703 484.292 350.841 478.328 C 339.642 466.934 337.886 463.686 339.451 457.257 C 340.266 453.903 450.924 342.512 455.500 340.438 C 459.536 338.609 461.762 338.702 466.500 340.898 M 174.282 153.382 C 176.052 154.143 186.793 164.155 198.152 175.632 C 217.651 195.336 218.841 196.755 219.489 201.074 C 220.362 206.900 218.390 211.859 213.856 215.237 C 209.405 218.554 205.813 219.292 200.713 217.940 C 197.160 216.999 193.329 213.671 176.270 196.714 C 165.144 185.654 155.305 175.055 154.406 173.161 C 148.585 160.895 161.607 147.937 174.282 153.382 M 199.800 109.080 C 202.094 109.880 203.197 111.113 204.052 113.830 C 209.485 131.098 233.149 153.965 251.194 159.385 C 252.126 159.665 253.421 161.675 254.073 163.851 C 257.129 174.049 250.174 183.167 239.340 183.167 C 236.900 183.167 233.913 182.509 232.702 181.704 C 231.491 180.900 219.385 169.275 205.801 155.871 C 184.294 134.650 180.961 130.951 180.013 127.250 C 178.132 119.916 181.319 113.126 188.500 109.164 C 191.073 107.745 195.867 107.709 199.800 109.080 M 148.790 197.907 C 150.830 198.956 159.319 206.734 167.653 215.190 C 184.382 232.164 185.982 234.861 183.867 242.520 C 182.503 247.461 177.234 252.546 172.573 253.420 C 165.163 254.811 162.585 253.139 145.357 235.773 C 136.479 226.823 128.716 218.517 128.107 217.316 C 127.498 216.114 127.000 213.143 127.000 210.714 C 127.000 199.642 138.741 192.742 148.790 197.907 M 130.800 250.427 C 132.285 251.211 136.812 255.209 140.860 259.311 C 147.388 265.925 148.278 267.283 148.733 271.325 C 149.016 273.831 148.966 276.998 148.624 278.363 C 147.625 282.341 143.164 286.871 139.023 288.111 C 132.137 290.174 128.458 288.664 119.672 280.167 C 108.887 269.736 106.879 264.459 110.852 256.984 C 114.636 249.864 123.943 246.804 130.800 250.427 M 253.796 107.662 L 279.092 112.399 265.609 125.882 L 252.125 139.366 246.709 135.770 C 235.260 128.168 222.000 111.715 222.000 105.110 C 222.000 102.018 224.887 102.250 253.796 107.662 "/></g>
<g fill="#000000FF" stroke="#000000FF">
<path d="M 415.500 4.980 C 414.400 5.450 404.500 14.876 393.500 25.926 L 373.500 46.019 373.500 50.596 C 373.500 56.361 377.080 60.000 382.751 60.000 C 386.151 60.000 387.763 58.634 407.199 39.279 C 418.643 27.882 428.272 17.718 428.598 16.692 C 431.020 9.061 422.915 1.815 415.500 4.980 "/></g>
<g fill="#000000FF" stroke="#000000FF">
<path d="M 87.888 5.450 C 84.628 7.283 82.613 11.960 83.446 15.755 C 83.886 17.758 90.447 24.983 104.845 39.322 C 124.507 58.903 125.809 60.000 129.381 60.000 C 134.648 60.000 139.000 55.645 139.000 50.375 C 139.000 46.793 137.917 45.509 118.246 25.775 C 100.628 8.101 96.963 4.880 93.996 4.468 C 91.914 4.178 89.443 4.576 87.888 5.450 "/></g>
<g fill="#000000FF" stroke="#000000FF">
<path d="M 252.213 2.531 C 246.600 4.928 246.000 7.921 246.000 33.500 C 246.000 58.696 246.580 61.697 251.994 64.497 C 255.927 66.530 259.934 65.764 263.124 62.368 L 265.500 59.839 265.500 33.442 L 265.500 7.045 263.000 4.642 C 259.714 1.484 256.251 0.806 252.213 2.531 "/></g>
<g fill="#000000FF" stroke="#000000FF">
<path d="M 65.750 433.080 C 62.952 434.710 60.793 439.783 61.510 443.046 C 62.333 446.795 67.351 451.000 71.000 451.000 C 74.649 451.000 79.667 446.795 80.490 443.046 C 81.230 439.678 78.979 434.594 76.055 433.030 C 73.615 431.724 68.032 431.751 65.750 433.080 "/></g>
<g fill="#000000FF" stroke="#000000FF">
<path d="M 336.589 337.077 C 332.414 342.039 333.558 348.686 339.079 351.541 C 345.746 354.989 353.000 350.539 353.000 343.002 C 353.000 334.468 342.096 330.531 336.589 337.077 "/></g>
</svg>
