<?xml version="1.0" encoding="utf-8"?>
<!DOCTYPE svg PUBLIC "-//W3C//DTD SVG 20010904//EN" "http://www.w3.org/TR/2001/REC-SVG-20010904/DTD/svg10.dtd">
<svg version="1.0" xmlns="http://www.w3.org/2000/svg" width="514pt" height="514pt" viewBox="0 0 514 514" style="" preserveAspectRatio="xMidYMid meet">
<g fill="#000000FF" stroke="#000000FF">
<path d="M 132.749 24.114 C 111.001 26.211 88.469 35.120 71.000 48.530 C 62.798 54.826 49.124 69.503 43.562 77.979 C 34.357 92.010 27.776 108.939 24.732 126.423 C 22.956 136.623 22.956 377.377 24.732 387.577 C 27.747 404.891 34.591 422.346 44.111 437.000 C 50.459 446.770 69.804 465.433 80.227 471.842 C 97.696 482.583 114.983 488.232 135.945 490.048 C 153.421 491.563 381.225 490.761 389.111 489.157 C 417.000 483.485 438.064 472.089 456.687 452.597 C 476.713 431.637 487.343 408.057 490.037 378.614 C 491.577 361.789 490.786 132.851 489.161 124.889 C 487.119 114.887 483.002 101.874 479.440 94.163 C 471.873 77.785 456.266 58.422 442.000 47.710 C 424.234 34.372 402.656 26.196 379.500 24.030 C 366.196 22.786 145.746 22.861 132.749 24.114 M 389.500 44.894 C 409.852 49.116 426.065 57.932 441.066 72.934 C 456.068 87.935 464.884 104.148 469.106 124.500 C 470.871 133.004 470.974 140.305 470.974 257.000 C 470.974 373.695 470.871 380.996 469.106 389.500 C 464.884 409.852 456.068 426.065 441.066 441.066 C 426.065 456.068 409.852 464.884 389.500 469.106 C 380.996 470.871 373.695 470.974 257.000 470.974 C 140.305 470.974 133.004 470.871 124.500 469.106 C 104.148 464.884 87.935 456.068 72.934 441.066 C 57.932 426.065 49.116 409.852 44.894 389.500 C 43.129 380.996 43.026 373.695 43.026 257.000 C 43.026 140.305 43.129 133.004 44.894 124.500 C 49.116 104.148 57.932 87.935 72.934 72.934 C 87.765 58.103 104.019 49.195 124.000 44.948 C 131.927 43.262 140.852 43.137 256.500 43.083 C 373.810 43.029 380.986 43.127 389.500 44.894 "/></g>
<g fill="#000000FF" stroke="#000000FF">
<path d="M 243.286 142.034 C 215.972 145.462 192.546 157.261 173.345 177.261 C 164.346 186.634 158.959 194.146 153.604 204.789 C 114.968 281.567 170.496 372.000 256.276 372.000 C 271.416 372.000 282.735 370.138 295.649 365.522 C 331.486 352.714 358.845 322.549 368.682 285.000 C 371.777 273.186 372.853 253.260 371.059 240.990 C 363.886 191.933 326.609 152.673 278.454 143.460 C 268.732 141.600 252.114 140.926 243.286 142.034 M 275.792 162.588 C 311.751 169.998 340.343 197.382 350.202 233.854 C 353.277 245.231 353.273 267.185 350.194 279.440 C 342.199 311.255 318.584 337.243 288.262 347.591 C 275.202 352.049 265.946 353.356 252.000 352.712 C 237.455 352.040 227.369 349.441 214.292 342.995 C 170.999 321.654 150.469 273.142 165.204 227.000 C 175.319 195.325 203.741 169.682 236.516 162.659 C 246.017 160.624 266.082 160.587 275.792 162.588 "/></g>
<g fill="#000000FF" stroke="#000000FF">
<path d="M 386.132 88.078 C 376.027 90.063 366.141 98.042 361.715 107.783 C 358.398 115.082 358.672 127.626 362.311 135.143 C 365.335 141.388 371.502 147.631 378.151 151.179 C 381.868 153.163 383.954 153.500 392.500 153.499 C 401.396 153.499 403.056 153.205 407.540 150.839 C 410.312 149.376 414.515 146.080 416.879 143.515 C 434.227 124.695 425.380 94.921 400.540 88.533 C 394.005 86.852 392.594 86.808 386.132 88.078 M 401.404 110.050 C 407.429 115.340 408.484 123.573 403.885 129.419 C 395.934 139.528 380.405 135.233 378.488 122.395 C 376.705 110.451 392.295 102.052 401.404 110.050 "/></g>
</svg>
