<?xml version="1.0" encoding="utf-8"?>
<!DOCTYPE svg PUBLIC "-//W3C//DTD SVG 20010904//EN" "http://www.w3.org/TR/2001/REC-SVG-20010904/DTD/svg10.dtd">
<svg version="1.0" xmlns="http://www.w3.org/2000/svg" width="514pt" height="514pt" viewBox="0 0 514 514" style="" preserveAspectRatio="xMidYMid meet">
<g fill="#000000FF" stroke="#000000FF">
<path d="M 16.493 89.351 C 11.023 91.898 5.667 97.338 3.125 102.927 C 1.648 106.174 1.500 120.213 1.500 257.000 C 1.500 393.787 1.648 407.826 3.125 411.073 C 5.667 416.662 11.023 422.102 16.493 424.649 L 21.500 426.980 257.000 426.980 L 492.500 426.980 497.507 424.649 C 502.977 422.102 508.333 416.662 510.875 411.073 C 512.352 407.826 512.500 393.787 512.500 257.000 C 512.500 120.213 512.352 106.174 510.875 102.927 C 508.333 97.338 502.977 91.898 497.507 89.351 L 492.500 87.020 257.000 87.020 L 21.500 87.020 16.493 89.351 M 127.182 197.636 C 186.189 241.896 235.829 278.434 238.927 279.886 C 244.005 282.268 245.610 282.500 257.000 282.500 C 268.157 282.500 270.091 282.234 275.000 280.022 C 278.272 278.548 323.438 245.331 386.500 198.022 C 444.800 154.285 492.838 118.350 493.250 118.167 C 493.663 117.983 494.000 179.997 494.000 255.976 C 494.000 340.942 493.642 393.897 493.069 393.543 C 492.558 393.227 467.585 362.635 437.575 325.561 C 407.565 288.487 381.823 257.220 380.371 256.077 C 372.277 249.710 361.779 260.445 367.708 269.027 C 368.647 270.387 394.072 301.964 424.208 339.197 C 454.344 376.430 479.000 407.143 479.000 407.447 C 479.000 407.751 379.100 408.000 257.000 408.000 C 134.900 408.000 35.000 407.762 35.000 407.471 C 35.000 407.181 58.768 377.593 87.818 341.721 C 116.868 305.850 142.293 274.328 144.318 271.673 C 149.049 265.472 149.273 261.119 145.077 256.923 C 141.561 253.407 137.415 253.099 133.633 256.074 C 132.182 257.215 106.473 288.463 76.500 325.514 C 46.527 362.565 21.553 393.158 21.002 393.499 C 20.335 393.911 20.000 348.000 20.000 256.059 C 20.000 180.127 20.227 118.000 20.505 118.000 C 20.783 118.000 68.787 153.836 127.182 197.636 M 374.491 183.382 C 318.106 225.668 270.193 261.145 268.019 262.221 C 262.678 264.863 251.409 264.914 246.217 262.318 C 243.643 261.031 42.806 111.256 37.081 106.354 C 36.851 106.157 135.740 106.109 256.836 106.248 L 477.010 106.500 374.491 183.382 "/></g>
</svg>
