<?xml version="1.0" encoding="utf-8"?>
<!DOCTYPE svg PUBLIC "-//W3C//DTD SVG 20010904//EN" "http://www.w3.org/TR/2001/REC-SVG-20010904/DTD/svg10.dtd">
<svg version="1.0" xmlns="http://www.w3.org/2000/svg" width="514pt" height="514pt" viewBox="0 0 514 514" style="" preserveAspectRatio="xMidYMid meet">
<g fill="#000000FF" stroke="#000000FF">
<path d="M 245.000 2.094 C 175.059 6.318 113.314 52.552 88.551 119.240 C 82.282 136.124 79.359 150.290 78.077 170.000 C 76.032 201.420 82.662 233.930 96.787 261.754 C 99.929 267.943 135.350 325.908 175.500 390.563 C 232.362 482.131 249.222 508.568 251.765 510.150 C 255.988 512.778 262.669 512.890 266.941 510.406 C 269.628 508.843 282.708 487.660 339.601 392.729 C 377.762 329.055 410.979 273.444 413.416 269.148 C 435.698 229.879 442.103 181.258 430.891 136.500 C 420.248 94.017 391.851 54.646 354.361 30.396 C 321.677 9.255 284.733 -0.306 245.000 2.094 M 270.575 31.415 C 294.104 32.858 322.539 43.248 342.979 57.871 C 378.137 83.025 399.988 118.797 406.049 161.122 C 407.625 172.128 406.738 200.633 404.496 211.000 C 402.123 221.978 396.381 238.284 391.469 248.000 C 386.336 258.151 260.421 468.380 259.287 468.692 C 258.221 468.984 127.623 258.144 122.188 247.357 C 113.846 230.797 108.496 211.114 107.148 192.030 C 105.163 163.910 110.769 136.675 123.640 111.903 C 147.613 65.762 194.746 34.644 246.000 31.118 C 251.775 30.721 257.850 30.514 259.500 30.658 C 261.150 30.802 266.134 31.143 270.575 31.415 "/></g>
<g fill="#000000FF" stroke="#000000FF">
<path d="M 247.867 92.097 C 214.738 95.516 187.146 116.276 174.024 147.653 C 165.554 167.906 165.739 194.914 174.487 215.319 C 179.350 226.663 183.606 233.295 191.405 241.689 C 208.963 260.586 230.933 270.114 257.000 270.137 C 281.241 270.158 301.456 262.126 318.864 245.557 C 336.431 228.838 346.235 205.860 346.195 181.500 C 346.154 156.312 337.562 135.386 320.088 117.912 C 300.840 98.663 274.716 89.325 247.867 92.097 M 270.500 122.164 C 273.250 122.736 279.280 125.004 283.899 127.203 C 295.500 132.726 304.940 142.165 310.699 154.000 C 315.551 163.972 317.000 170.181 317.000 181.000 C 317.000 197.832 311.265 211.853 299.649 223.415 C 287.641 235.368 273.748 241.143 257.000 241.143 C 240.288 241.143 226.320 235.352 214.484 223.516 C 202.648 211.680 196.857 197.712 196.857 181.000 C 196.857 164.288 202.648 150.320 214.484 138.484 C 229.551 123.418 249.127 117.714 270.500 122.164 "/></g>
</svg>
