<?xml version="1.0" standalone="no"?>
<!DOCTYPE svg PUBLIC "-//W3C//DTD SVG 20010904//EN"
 "http://www.w3.org/TR/2001/REC-SVG-20010904/DTD/svg10.dtd">
<svg version="1.0" xmlns="http://www.w3.org/2000/svg"
 width="512.000000pt" height="512.000000pt" viewBox="0 0 512.000000 512.000000"
 preserveAspectRatio="xMidYMid meet">

<g transform="translate(0.000000,512.000000) scale(0.100000,-0.100000)"
fill="#fff" stroke="none">
<path d="M1849 4654 c-192 -34 -385 -135 -529 -275 -402 -390 -416 -1039 -32
-1441 217 -227 503 -342 807 -325 448 26 825 336 942 773 23 87 26 118 26 254
0 135 -3 168 -26 252 -124 467 -530 781 -1004 777 -59 0 -142 -7 -184 -15z"/>
<path d="M3875 3315 c-477 -110 -796 -522 -772 -1000 22 -435 322 -793 755
-902 103 -26 351 -23 455 5 340 93 607 355 696 683 84 306 18 621 -181 872
-116 146 -296 266 -484 323 -77 23 -110 27 -249 30 -111 2 -178 -1 -220 -11z
m766 -474 c27 -16 52 -43 62 -64 21 -44 22 -119 2 -161 -9 -18 -176 -192 -373
-388 -300 -299 -363 -358 -397 -367 -96 -26 -126 -8 -332 200 -162 164 -172
177 -178 221 -12 83 26 156 99 189 91 41 147 20 270 -101 l92 -89 279 280
c154 155 294 287 310 295 52 23 115 18 166 -15z"/>
<path d="M841 2395 c-166 -46 -309 -163 -381 -310 -35 -70 -375 -1128 -384
-1196 -10 -66 17 -181 56 -247 42 -69 96 -116 178 -156 l65 -31 1665 0 1665 0
58 27 c80 38 161 117 200 197 29 61 32 74 32 166 0 91 -4 111 -43 227 l-42
126 -78 17 c-519 115 -888 542 -928 1073 -4 50 -9 92 -12 92 -3 0 -60 -18
-127 -40 -235 -76 -460 -110 -732 -110 -283 0 -518 39 -773 127 -126 44 -142
48 -250 50 -79 2 -132 -2 -169 -12z"/>
</g>
</svg>
