<?xml version="1.0" encoding="utf-8"?>
<!DOCTYPE svg PUBLIC "-//W3C//DTD SVG 20010904//EN" "http://www.w3.org/TR/2001/REC-SVG-20010904/DTD/svg10.dtd">
<svg version="1.0" xmlns="http://www.w3.org/2000/svg" width="514pt" height="514pt" viewBox="0 0 514 514" style="" preserveAspectRatio="xMidYMid meet">
<g fill="#000000FF" stroke="#000000FF">
<path d="M 98.448 2.064 C 61.940 6.429 33.273 35.626 29.016 72.777 C 27.656 84.644 27.656 429.356 29.016 441.223 C 33.352 479.065 61.935 507.648 99.777 511.984 C 112.139 513.401 220.440 513.313 227.116 511.882 C 247.262 507.561 247.262 478.439 227.116 474.118 C 223.602 473.365 202.268 472.996 161.701 472.989 C 111.234 472.980 100.705 472.737 96.584 471.487 C 83.571 467.539 73.461 457.429 69.513 444.416 C 67.259 436.985 67.259 77.015 69.513 69.584 C 73.461 56.571 83.571 46.461 96.584 42.513 C 103.764 40.335 357.985 40.258 365.148 42.432 C 377.417 46.156 386.839 54.959 391.835 67.364 C 393.344 71.112 393.547 82.156 394.000 185.000 C 394.455 288.317 394.649 298.769 396.161 301.500 C 404.114 315.866 424.436 315.743 431.620 301.285 C 433.418 297.665 433.513 292.936 433.796 192.500 C 434.114 79.734 433.795 69.771 429.443 56.397 C 421.104 30.771 400.270 11.167 373.500 3.758 L 365.500 1.544 235.500 1.383 C 164.000 1.294 102.327 1.600 98.448 2.064 "/></g>
<g fill="#000000FF" stroke="#000000FF">
<path d="M 461.644 324.429 C 458.612 325.251 455.554 327.013 453.500 329.122 C 451.691 330.980 428.534 362.875 402.040 400.000 C 375.547 437.125 352.542 468.738 350.919 470.250 C 348.605 472.407 346.996 473.000 343.462 473.000 C 338.103 473.000 341.355 475.769 299.561 435.625 C 283.028 419.744 267.989 406.106 266.143 405.317 C 264.297 404.529 260.630 403.867 257.995 403.847 C 244.992 403.746 236.167 415.459 239.504 428.387 C 240.966 434.051 241.769 434.886 290.085 481.008 C 318.507 508.141 325.320 512.130 343.475 512.275 C 356.765 512.381 368.212 507.939 378.200 498.800 C 384.863 492.704 483.957 353.790 485.647 348.178 C 489.968 333.823 476.427 320.424 461.644 324.429 "/></g>
<g fill="#000000FF" stroke="#000000FF">
<path d="M 122.704 202.413 C 114.030 204.766 108.677 211.859 108.677 221.000 C 108.677 230.688 114.633 237.952 124.207 239.939 C 127.952 240.717 160.575 240.964 234.017 240.773 C 337.480 240.503 338.539 240.480 342.447 238.430 C 344.617 237.291 347.767 234.662 349.447 232.587 C 352.269 229.100 352.500 228.223 352.500 221.000 C 352.500 213.777 352.269 212.900 349.447 209.413 C 347.767 207.338 344.617 204.709 342.447 203.570 C 338.535 201.518 337.569 201.498 233.000 201.306 C 149.037 201.152 126.521 201.378 122.704 202.413 "/></g>
<g fill="#000000FF" stroke="#000000FF">
<path d="M 122.704 122.413 C 114.030 124.766 108.677 131.859 108.677 141.000 C 108.677 150.688 114.633 157.952 124.207 159.939 C 127.952 160.717 160.575 160.964 234.017 160.773 C 337.480 160.503 338.539 160.480 342.447 158.430 C 344.617 157.291 347.767 154.662 349.447 152.587 C 352.269 149.100 352.500 148.223 352.500 141.000 C 352.500 133.777 352.269 132.900 349.447 129.413 C 347.767 127.338 344.617 124.709 342.447 123.570 C 338.535 121.518 337.569 121.498 233.000 121.306 C 149.037 121.152 126.521 121.378 122.704 122.413 "/></g>
<g fill="#000000FF" stroke="#000000FF">
<path d="M 122.704 282.425 C 114.038 284.755 108.677 291.855 108.677 301.000 C 108.677 310.574 114.597 317.890 123.970 319.900 C 131.131 321.436 249.947 321.419 257.116 319.882 C 260.778 319.096 263.500 317.673 266.255 315.104 C 277.588 304.532 272.279 285.370 257.116 282.118 C 249.227 280.426 129.118 280.700 122.704 282.425 "/></g>
</svg>
