<?xml version="1.0" standalone="no"?>
<!DOCTYPE svg PUBLIC "-//W3C//DTD SVG 20010904//EN"
 "http://www.w3.org/TR/2001/REC-SVG-20010904/DTD/svg10.dtd">
<svg version="1.0" xmlns="http://www.w3.org/2000/svg"
 width="512.000000pt" height="512.000000pt" viewBox="0 0 512.000000 512.000000"
 preserveAspectRatio="xMidYMid meet">

<g transform="translate(0.000000,512.000000) scale(0.100000,-0.100000)"
fill="#fff" stroke="none">
<path d="M1135 4832 c-62 -21 -114 -60 -150 -111 -53 -78 -55 -95 -55 -602 l0
-468 -352 -3 c-337 -3 -355 -4 -399 -24 -60 -28 -125 -93 -153 -153 l-21 -46
0 -995 0 -995 21 -46 c28 -60 93 -125 153 -153 45 -20 59 -21 526 -24 l480 -3
195 -194 c121 -119 206 -196 223 -200 47 -12 76 4 166 90 l88 85 6 -50 c13
-105 81 -200 176 -244 45 -20 59 -21 526 -24 l480 -3 195 -194 c121 -119 206
-196 223 -200 54 -14 79 4 277 200 l195 194 480 3 c467 3 481 4 526 24 60 28
125 93 153 153 l21 46 0 995 0 995 -21 46 c-28 60 -93 125 -153 153 -44 20
-62 21 -398 24 l-353 3 -2 757 c-3 751 -3 757 -24 803 -28 60 -93 125 -153
153 l-46 21 -1390 2 c-1298 2 -1393 1 -1440 -15z m2822 -215 l28 -27 0 -960 0
-960 -28 -27 -27 -28 -508 -5 c-279 -3 -509 -7 -511 -8 -2 -1 -82 -79 -177
-174 l-174 -172 -174 172 c-95 95 -175 173 -177 174 -2 1 -232 5 -511 8 l-508
5 -27 28 -28 27 0 959 c0 945 0 959 20 981 11 12 29 26 40 31 11 4 631 7 1377
6 l1358 -2 27 -28z m-3025 -1574 c3 -393 4 -410 24 -454 28 -60 93 -125 153
-153 45 -20 59 -21 526 -24 l480 -3 195 -194 c198 -196 223 -214 277 -200 17
4 102 81 223 201 158 157 201 194 223 194 l28 0 -3 -470 -3 -470 -28 -27 -27
-28 -508 -5 c-279 -3 -509 -7 -511 -8 -2 -1 -82 -79 -177 -174 l-174 -172
-174 172 c-95 95 -175 173 -177 174 -2 1 -232 5 -511 8 l-508 5 -27 28 -28 27
0 959 c0 945 0 959 20 981 11 12 29 26 40 31 11 4 165 8 342 8 l322 1 3 -407z
m3955 -166 l28 -27 0 -960 0 -960 -28 -27 -27 -28 -508 -5 c-279 -3 -509 -7
-511 -8 -2 -1 -82 -79 -177 -174 l-174 -172 -174 172 c-95 95 -175 173 -177
174 -2 1 -232 5 -511 8 l-508 5 -27 28 c-28 27 -28 28 -28 165 l0 137 485 5
c470 5 486 6 531 26 60 28 125 93 153 153 20 45 21 59 24 533 l3 487 352 3
c399 3 403 4 487 88 70 70 84 113 88 273 l4 138 334 -3 334 -3 27 -28z"/>
<path d="M1595 4281 c-64 -27 -81 -110 -32 -158 l27 -28 965 -3 964 -2 33 29
c27 24 33 36 33 71 0 35 -6 47 -33 71 l-32 29 -953 -1 c-523 0 -961 -4 -972
-8z"/>
<path d="M1595 3721 c-64 -27 -81 -110 -32 -158 l27 -28 703 -3 c386 -1 713 0
725 3 13 3 35 18 48 32 43 46 27 121 -33 152 -26 13 -1406 15 -1438 2z"/>
<path d="M3455 3721 c-64 -27 -81 -110 -32 -158 20 -21 37 -28 67 -28 116 0
130 170 15 190 -16 2 -39 1 -50 -4z"/>
<path d="M1594 3161 c-32 -14 -64 -60 -64 -92 0 -18 11 -41 29 -61 25 -28 36
-33 75 -33 125 0 139 174 15 190 -18 3 -44 1 -55 -4z"/>
<path d="M2085 3161 c-64 -27 -81 -110 -32 -158 l27 -28 720 -3 719 -2 33 29
c27 24 33 36 33 71 0 35 -6 47 -33 71 l-32 29 -708 -1 c-389 0 -716 -4 -727
-8z"/>
</g>
</svg>
