<?xml version="1.0" encoding="utf-8"?>
<!DOCTYPE svg PUBLIC "-//W3C//DTD SVG 20010904//EN" "http://www.w3.org/TR/2001/REC-SVG-20010904/DTD/svg10.dtd">
<svg version="1.0" xmlns="http://www.w3.org/2000/svg" width="514pt" height="514pt" viewBox="0 0 514 514" style="" preserveAspectRatio="xMidYMid meet">
<g fill="#fff" stroke="#000000FF">
<path d="M 292.000 87.594 C 287.871 89.383 283.371 93.449 281.447 97.129 C 280.332 99.263 195.748 394.012 193.618 403.186 C 192.608 407.535 194.811 415.315 198.225 419.457 C 206.815 429.878 223.657 429.350 231.213 418.423 C 233.320 415.376 243.553 380.792 277.052 263.500 C 300.771 180.450 320.422 111.038 320.719 109.252 C 322.005 101.541 316.218 91.366 308.571 87.893 C 303.655 85.660 296.753 85.536 292.000 87.594 "/></g>
<g fill="#fff" stroke="#000000FF">
<path d="M 381.000 150.961 C 376.511 151.835 372.086 154.182 369.298 157.169 C 364.173 162.657 362.534 172.537 365.545 179.782 C 366.587 182.289 379.040 195.470 403.777 220.250 L 440.464 257.000 403.777 293.750 C 379.040 318.530 366.587 331.711 365.545 334.218 C 362.534 341.463 364.173 351.339 369.298 356.834 C 374.836 362.771 385.439 364.952 393.113 361.732 C 398.173 359.609 486.085 272.033 488.921 266.290 C 491.651 260.761 491.652 253.242 488.923 247.710 C 485.915 241.614 397.312 153.557 392.806 152.186 C 387.339 150.522 384.676 150.246 381.000 150.961 "/></g>
<g fill="#fff" stroke="#000000FF">
<path d="M 123.628 151.498 C 119.049 152.677 115.979 155.525 72.810 198.627 C 47.541 223.857 25.996 246.170 24.933 248.210 C 22.400 253.073 22.398 260.921 24.929 265.790 C 25.989 267.830 47.702 290.269 73.179 315.653 C 117.403 359.717 119.714 361.850 124.217 362.775 C 131.873 364.347 139.845 362.034 144.702 356.831 C 149.827 351.343 151.466 341.463 148.455 334.218 C 147.413 331.711 134.960 318.530 110.223 293.750 L 73.536 257.000 110.223 220.250 C 134.960 195.470 147.413 182.289 148.455 179.782 C 149.305 177.737 150.000 174.010 150.000 171.500 C 150.000 157.383 137.521 147.918 123.628 151.498 "/></g>
</svg>
