<?xml version="1.0" standalone="no"?>
<!DOCTYPE svg PUBLIC "-//W3C//DTD SVG 20010904//EN"
 "http://www.w3.org/TR/2001/REC-SVG-20010904/DTD/svg10.dtd">
<svg version="1.0" xmlns="http://www.w3.org/2000/svg"
 width="512.000000pt" height="512.000000pt" viewBox="0 0 512.000000 512.000000"
 preserveAspectRatio="xMidYMid meet">

<g transform="translate(0.000000,512.000000) scale(0.100000,-0.100000)"
fill="#fff" stroke="none">
<path d="M2083 5022 c-29 -10 -70 -31 -92 -46 -48 -34 -106 -116 -121 -173
-14 -57 -36 -62 -113 -27 -125 56 -273 29 -365 -66 -61 -62 -86 -121 -90 -210
-3 -59 1 -88 19 -135 19 -52 41 -79 171 -211 l149 -151 -41 -7 c-97 -15 -194
-91 -238 -186 -62 -134 -11 -311 114 -389 l43 -28 -106 -119 c-458 -515 -738
-923 -842 -1231 -99 -289 -106 -594 -20 -868 147 -471 527 -840 1035 -1005
312 -102 700 -118 1033 -44 253 57 489 168 702 333 l25 20 153 -181 c85 -99
168 -188 185 -199 39 -24 82 -24 123 -1 33 18 781 891 808 942 31 61 6 139
-56 172 -28 15 -57 18 -181 18 l-148 0 0 833 c0 541 -4 845 -10 869 -14 48
-53 94 -101 118 -36 19 -60 20 -369 20 -275 0 -337 -3 -367 -15 -52 -22 -72
-42 -98 -98 l-22 -47 -74 87 c-40 49 -134 157 -208 242 -122 139 -133 154
-115 164 45 25 113 101 134 149 81 189 -25 399 -221 440 l-59 12 150 151 c175
177 194 208 194 325 0 130 -64 235 -177 289 -103 50 -190 50 -294 0 -67 -33
-72 -30 -116 72 -51 118 -150 188 -275 196 -48 2 -82 -2 -119 -15z m160 -156
c45 -19 82 -63 101 -120 44 -136 166 -191 292 -132 28 13 65 27 82 31 77 16
173 -52 187 -134 13 -78 -3 -101 -213 -313 l-196 -198 -311 0 -310 0 -197 198
c-108 108 -201 207 -207 219 -19 38 -13 116 12 153 51 77 138 94 237 46 131
-62 258 -5 303 137 32 102 129 152 220 113z m547 -1048 c48 -33 72 -70 77
-121 7 -55 -25 -118 -73 -147 -30 -19 -54 -20 -610 -20 -556 0 -580 1 -611 20
-106 64 -101 219 9 273 29 15 98 17 604 17 l571 0 33 -22z m-54 -545 c186
-204 328 -370 457 -536 l77 -99 0 -704 0 -704 -150 0 c-157 0 -185 -6 -223
-48 -27 -30 -38 -80 -27 -121 7 -24 72 -109 190 -246 139 -163 176 -212 168
-223 -25 -30 -177 -129 -275 -178 -171 -87 -362 -142 -575 -165 -128 -14 -392
-6 -513 15 -549 98 -996 459 -1155 934 -97 291 -74 621 64 924 121 266 393
637 796 1087 l144 161 467 0 466 0 89 -97z m1328 -379 c3 -9 6 -411 6 -894 0
-849 1 -879 19 -901 18 -23 26 -24 183 -29 l164 -5 -341 -402 c-187 -221 -343
-402 -346 -402 -4 -1 -161 180 -349 402 l-342 402 162 5 162 5 24 28 24 28 0
883 c0 485 3 886 7 889 3 4 145 7 314 7 271 0 308 -2 313 -16z"/>
<path d="M2145 2689 c-37 -21 -45 -41 -45 -111 l0 -67 -42 -11 c-68 -16 -159
-64 -210 -109 -139 -123 -158 -354 -41 -491 74 -86 173 -133 374 -175 195 -40
293 -100 319 -195 45 -160 -90 -275 -320 -274 -167 1 -266 58 -326 191 -36 78
-62 99 -109 87 -64 -16 -74 -82 -25 -180 58 -119 159 -199 299 -240 l76 -22 5
-72 c4 -60 9 -75 29 -91 24 -19 56 -24 86 -13 27 11 45 60 45 121 l0 58 60 12
c139 26 276 123 320 226 89 206 -31 431 -274 511 -26 9 -102 28 -167 42 -177
37 -242 69 -286 142 -27 43 -31 124 -9 175 20 49 97 111 161 132 70 21 170 22
234 0 63 -20 134 -83 172 -150 33 -60 70 -82 110 -66 83 31 66 127 -42 245
-52 57 -155 117 -236 136 l-43 11 0 64 c0 52 -4 69 -22 89 -27 30 -65 40 -93
25z"/>
</g>
</svg>
