<?xml version="1.0" encoding="utf-8"?>
<!DOCTYPE svg PUBLIC "-//W3C//DTD SVG 20010904//EN" "http://www.w3.org/TR/2001/REC-SVG-20010904/DTD/svg10.dtd">
<svg version="1.0" xmlns="http://www.w3.org/2000/svg" width="514pt" height="514pt" viewBox="0 0 514 514" style="" preserveAspectRatio="xMidYMid meet">
<g fill="#fff" stroke="#000000FF">
<path d="M 387.500 17.559 C 386.400 17.812 383.025 18.504 380.000 19.095 C 376.975 19.687 370.675 21.976 366.000 24.182 L 357.500 28.193 215.408 170.347 L 73.316 312.500 45.053 397.929 C 18.229 479.010 16.848 483.549 17.913 487.105 C 19.507 492.423 24.097 496.000 29.327 496.000 C 32.121 496.000 61.422 486.713 118.000 467.895 L 202.500 439.790 343.024 299.145 C 490.989 151.054 487.100 155.178 492.849 140.242 C 495.228 134.063 495.444 132.248 495.444 118.500 C 495.444 104.752 495.228 102.937 492.849 96.758 C 491.422 93.051 488.735 87.433 486.877 84.276 C 482.999 77.682 444.963 38.432 435.500 31.259 C 428.660 26.074 419.460 21.480 411.768 19.411 C 406.269 17.932 390.956 16.763 387.500 17.559 M 380.746 133.246 C 405.636 158.131 426.000 178.944 426.000 179.498 C 426.000 180.051 374.250 232.252 311.000 295.500 L 196.000 410.497 149.751 364.249 L 103.503 318.000 218.500 203.000 C 281.748 139.750 333.946 88.000 334.494 88.000 C 335.043 88.000 355.856 108.361 380.746 133.246 M 412.277 46.821 C 417.462 49.378 422.347 53.775 441.575 73.195 C 466.228 98.093 468.133 100.685 470.287 112.270 C 471.673 119.723 470.215 128.997 466.444 136.704 C 464.763 140.141 460.211 145.882 454.423 151.867 L 445.108 161.500 398.816 115.261 L 352.525 69.022 360.512 60.930 C 375.015 46.236 382.398 42.709 397.277 43.365 C 404.576 43.687 407.102 44.269 412.277 46.821 M 111.937 442.855 C 78.767 453.914 51.440 462.773 51.210 462.543 C 50.833 462.166 89.583 344.700 90.766 342.633 C 91.039 342.156 109.484 359.987 131.754 382.258 L 172.246 422.749 111.937 442.855 "/></g>
</svg>
