<?xml version="1.0" encoding="utf-8"?>
<!DOCTYPE svg PUBLIC "-//W3C//DTD SVG 20010904//EN" "http://www.w3.org/TR/2001/REC-SVG-20010904/DTD/svg10.dtd">
<svg version="1.0" xmlns="http://www.w3.org/2000/svg" width="514pt" height="514pt" viewBox="0 0 514 514" style="" preserveAspectRatio="xMidYMid meet">
<g fill="#fff" stroke="#000000FF">
<path d="M 1.192 281.250 C 1.683 291.770 3.376 296.042 8.226 298.991 C 9.947 300.038 25.275 305.448 42.290 311.015 C 72.345 320.848 73.257 321.223 74.363 324.204 C 74.988 325.892 76.888 330.474 78.584 334.386 L 81.667 341.500 66.834 371.308 C 51.405 402.311 50.506 404.941 53.052 411.636 C 54.103 414.400 91.052 452.419 98.368 458.265 C 101.257 460.573 103.535 461.462 107.368 461.777 C 112.309 462.184 113.617 461.644 142.500 447.266 L 172.500 432.333 179.614 435.416 C 183.526 437.112 188.108 439.012 189.796 439.637 C 192.777 440.743 193.152 441.655 202.985 471.710 C 208.552 488.725 213.962 504.053 215.009 505.774 C 219.030 512.386 219.750 512.500 257.500 512.500 C 295.250 512.500 295.970 512.386 299.991 505.774 C 301.038 504.053 306.448 488.725 312.015 471.710 C 321.848 441.655 322.223 440.743 325.204 439.637 C 326.892 439.012 331.474 437.112 335.386 435.416 L 342.500 432.333 372.500 447.266 C 401.383 461.644 402.691 462.184 407.632 461.777 C 411.465 461.462 413.743 460.573 416.632 458.265 C 423.948 452.419 460.897 414.400 461.948 411.636 C 464.494 404.941 463.595 402.311 448.168 371.308 L 433.337 341.500 436.690 333.500 C 438.534 329.100 440.596 324.460 441.271 323.190 C 442.286 321.282 447.728 319.148 472.500 310.943 C 489.000 305.478 503.941 300.125 505.701 299.048 C 510.628 296.033 512.316 291.806 512.808 281.250 L 513.239 272.000 452.638 272.000 L 392.038 272.000 391.568 274.250 C 391.309 275.488 390.365 280.325 389.469 285.000 C 380.768 330.429 343.674 371.306 298.000 385.798 C 270.433 394.544 238.888 394.042 211.889 384.425 C 168.612 369.012 133.962 329.046 125.485 284.765 C 124.615 280.219 123.691 275.488 123.432 274.250 L 122.962 272.000 61.862 272.000 L 0.761 272.000 1.192 281.250 "/></g>
<g fill="#fff" stroke="#000000FF">
<path d="M 246.000 152.132 C 210.610 155.739 177.628 179.551 162.415 212.478 C 158.795 220.313 154.000 235.774 154.000 239.612 L 154.000 242.000 257.500 242.000 L 361.000 242.000 361.000 239.612 C 361.000 236.052 356.388 220.812 353.149 213.668 C 341.016 186.909 314.340 163.875 285.971 155.662 C 279.156 153.689 257.658 150.538 255.076 151.133 C 254.759 151.206 250.675 151.656 246.000 152.132 "/></g>
<g fill="#fff" stroke="#000000FF">
<path d="M 47.298 140.927 C 29.720 153.272 15.749 171.288 8.083 191.500 C 3.792 202.812 2.039 212.320 1.317 228.197 L 0.689 242.000 61.844 242.000 C 122.754 242.000 123.000 241.992 123.000 239.958 C 123.000 235.960 126.182 222.361 129.191 213.500 C 137.395 189.336 151.921 168.315 172.197 151.263 L 175.894 148.154 171.697 144.801 C 166.102 140.332 159.313 136.000 157.902 136.000 C 157.275 136.000 154.169 137.575 151.000 139.500 C 125.750 154.838 88.250 154.838 63.000 139.500 C 59.831 137.575 56.580 136.000 55.776 136.000 C 54.972 136.000 51.157 138.217 47.298 140.927 "/></g>
<g fill="#fff" stroke="#000000FF">
<path d="M 351.453 138.828 C 349.227 140.297 345.529 142.989 343.235 144.809 L 339.064 148.117 342.782 151.245 C 363.087 168.325 377.601 189.325 385.809 213.500 C 388.818 222.361 392.000 235.960 392.000 239.958 C 392.000 241.992 392.249 242.000 452.656 242.000 L 513.311 242.000 512.685 228.250 C 511.473 201.616 505.119 182.535 491.244 163.862 C 483.092 152.890 463.681 136.000 459.224 136.000 C 458.420 136.000 455.169 137.575 452.000 139.500 C 426.750 154.838 389.250 154.838 364.000 139.500 C 360.831 137.575 357.622 136.035 356.869 136.078 C 356.116 136.121 353.679 137.358 351.453 138.828 "/></g>
<g fill="#fff" stroke="#000000FF">
<path d="M 249.173 2.096 C 236.143 3.743 224.598 9.471 215.034 19.034 C 203.411 30.658 197.878 44.193 197.878 61.000 C 197.878 77.807 203.411 91.342 215.034 102.966 C 226.648 114.580 240.118 120.086 257.120 120.170 C 274.309 120.255 287.023 114.958 299.611 102.468 C 311.837 90.338 317.263 77.590 317.263 61.000 C 317.263 44.410 311.837 31.662 299.611 19.532 C 285.519 5.549 268.474 -0.343 249.173 2.096 "/></g>
<g fill="#fff" stroke="#000000FF">
<path d="M 400.173 2.086 C 392.028 3.128 388.078 4.423 379.562 8.844 C 366.203 15.778 354.518 30.537 350.467 45.592 C 348.396 53.291 348.396 68.709 350.467 76.408 C 355.815 96.284 372.716 113.185 392.592 118.533 C 400.291 120.604 415.709 120.604 423.408 118.533 C 443.284 113.185 460.185 96.284 465.533 76.408 C 467.604 68.709 467.604 53.291 465.533 45.592 C 457.866 17.096 429.648 -1.687 400.173 2.086 "/></g>
<g fill="#fff" stroke="#000000FF">
<path d="M 99.173 2.086 C 91.028 3.128 87.078 4.423 78.562 8.844 C 65.203 15.778 53.518 30.537 49.467 45.592 C 47.396 53.291 47.396 68.709 49.467 76.408 C 54.815 96.284 71.716 113.185 91.592 118.533 C 99.291 120.604 114.709 120.604 122.408 118.533 C 142.284 113.185 159.185 96.284 164.533 76.408 C 166.604 68.709 166.604 53.291 164.533 45.592 C 156.866 17.096 128.648 -1.687 99.173 2.086 "/></g>
<g fill="#fff" stroke="#000000FF">
<path d="M 154.000 272.845 C 154.000 276.801 159.825 295.104 163.466 302.588 C 182.595 341.911 223.539 364.994 266.918 360.913 C 311.069 356.758 348.814 324.230 359.067 281.500 C 360.122 277.100 360.989 273.150 360.993 272.723 C 360.997 272.296 354.391 272.071 346.314 272.223 L 331.628 272.500 330.429 277.206 C 325.223 297.635 307.567 317.494 286.885 326.183 C 273.243 331.915 255.728 333.557 240.815 330.501 C 231.729 328.639 217.427 321.686 209.524 315.289 C 198.435 306.312 188.522 291.472 184.950 278.500 L 183.298 272.500 168.649 272.223 C 160.447 272.068 154.000 272.342 154.000 272.845 "/></g>
<g fill="#fff" stroke="#000000FF">
<path d="M 217.546 277.090 C 222.163 286.202 231.394 294.660 240.693 298.298 C 261.439 306.414 286.607 297.348 296.891 278.053 L 300.117 272.000 257.542 272.000 L 214.966 272.000 217.546 277.090 "/></g>
</svg>
