<?xml version="1.0" encoding="utf-8"?>
<!DOCTYPE svg PUBLIC "-//W3C//DTD SVG 20010904//EN" "http://www.w3.org/TR/2001/REC-SVG-20010904/DTD/svg10.dtd">
<svg version="1.0" xmlns="http://www.w3.org/2000/svg" width="514pt" height="514pt" viewBox="0 0 514 514" style="" preserveAspectRatio="xMidYMid meet">
<g fill="#fff" stroke="#000000FF">
<path d="M 441.300 2.090 C 386.131 4.961 331.161 19.080 287.402 41.619 C 234.902 68.661 181.043 118.393 144.578 173.500 C 135.326 187.482 125.000 204.951 125.000 206.621 C 125.000 207.699 306.192 389.000 307.269 389.000 C 308.654 389.000 326.287 378.798 337.711 371.388 C 390.722 337.002 440.845 284.186 469.043 233.000 C 487.530 199.440 501.496 155.893 508.008 111.500 C 513.577 73.538 514.190 26.116 509.236 16.500 C 506.799 11.770 501.870 6.917 497.000 4.453 C 491.070 1.453 470.397 0.576 441.300 2.090 M 366.792 88.580 C 401.932 95.785 427.063 126.734 426.983 162.708 C 426.939 182.473 419.424 200.366 405.000 215.051 C 369.327 251.369 308.504 242.213 285.080 197.000 C 270.464 168.786 274.701 135.325 295.858 111.883 C 313.648 92.173 340.802 83.252 366.792 88.580 "/></g>
<g fill="#fff" stroke="#000000FF">
<path d="M 106.233 249.250 C 101.803 261.790 96.924 280.057 94.518 293.113 C 92.845 302.191 93.395 308.076 96.459 313.852 C 97.231 315.308 120.731 339.288 148.681 367.139 C 200.694 418.967 200.296 418.619 209.621 420.480 C 215.493 421.651 250.025 413.434 268.500 406.469 C 272.350 405.018 275.706 403.625 275.957 403.375 C 276.469 402.865 111.877 238.000 110.856 238.000 C 110.500 238.000 108.419 243.063 106.233 249.250 "/></g>
<g fill="#fff" stroke="#000000FF">
<path d="M 366.500 389.122 C 327.907 416.389 274.189 440.415 234.712 448.066 C 228.206 449.327 227.946 449.488 228.441 451.941 C 228.725 453.348 230.303 463.143 231.947 473.706 C 233.591 484.269 235.569 494.427 236.343 496.279 C 238.493 501.425 243.771 506.850 249.410 509.710 C 255.395 512.745 265.251 513.189 271.000 510.682 C 275.775 508.600 352.375 457.936 358.047 453.109 C 363.080 448.825 368.375 439.803 369.876 432.954 C 370.925 428.169 374.469 385.133 373.864 384.535 C 373.664 384.338 370.350 386.402 366.500 389.122 "/></g>
<g fill="#fff" stroke="#000000FF">
<path d="M 111.000 141.115 C 82.312 143.402 79.861 143.809 72.265 147.541 C 67.356 149.952 63.745 152.607 61.037 155.797 C 56.173 161.526 5.461 238.096 3.283 243.000 C 0.765 248.669 1.226 258.547 4.291 264.590 C 7.150 270.229 12.574 275.506 17.721 277.657 C 19.573 278.431 29.731 280.409 40.294 282.053 C 50.857 283.697 60.656 285.276 62.070 285.561 C 64.535 286.059 64.689 285.812 65.857 279.472 C 67.963 268.042 75.656 242.749 81.561 227.841 C 91.779 202.045 105.194 176.802 121.733 152.250 L 129.985 140.000 125.743 140.139 C 123.409 140.215 116.775 140.654 111.000 141.115 "/></g>
<g fill="#fff" stroke="#000000FF">
<path d="M 337.666 120.074 C 321.732 125.555 310.549 138.801 307.788 155.462 C 305.476 169.411 310.053 183.205 320.428 193.560 C 334.395 207.500 353.782 210.720 371.517 202.047 C 382.249 196.798 390.027 187.757 394.072 175.829 C 395.853 170.576 396.142 167.883 395.772 159.986 C 395.396 151.941 394.844 149.458 392.199 143.916 C 384.299 127.364 369.379 117.954 351.161 118.033 C 346.174 118.055 341.464 118.767 337.666 120.074 "/></g>
<g fill="#fff" stroke="#000000FF">
<path d="M 104.500 390.441 C 102.850 391.191 79.309 414.041 52.186 441.220 C -0.941 494.456 0.122 493.175 2.037 501.662 C 3.093 506.347 7.653 510.907 12.338 511.963 C 20.825 513.878 19.544 514.941 72.781 461.814 C 100.817 433.837 122.805 411.108 123.599 409.282 C 125.504 404.907 125.364 402.383 122.940 397.376 C 121.444 394.286 119.714 392.556 116.624 391.060 C 111.711 388.681 108.711 388.528 104.500 390.441 "/></g>
<g fill="#fff" stroke="#000000FF">
<path d="M 149.500 435.433 C 147.850 436.179 134.238 449.118 119.250 464.186 C 90.663 492.928 91.313 492.074 91.993 500.000 C 92.792 509.299 104.220 515.106 112.800 510.573 C 114.285 509.789 127.272 497.301 141.659 482.823 C 163.277 461.071 168.005 455.811 168.889 452.532 C 170.854 445.247 167.423 438.328 160.390 435.390 C 156.274 433.670 153.378 433.682 149.500 435.433 "/></g>
<g fill="#fff" stroke="#000000FF">
<path d="M 60.559 345.480 C 57.609 346.540 50.120 353.376 30.743 372.698 C 16.512 386.889 4.222 399.715 3.434 401.200 C -1.113 409.765 4.698 421.208 14.000 422.007 C 21.926 422.687 21.072 423.337 49.815 394.750 C 64.885 379.763 77.841 366.052 78.607 364.282 C 80.489 359.933 80.362 357.379 78.021 352.544 C 74.779 345.847 67.611 342.947 60.559 345.480 "/></g>
</svg>
