<?xml version="1.0" encoding="utf-8"?>
<!DOCTYPE svg PUBLIC "-//W3C//DTD SVG 20010904//EN" "http://www.w3.org/TR/2001/REC-SVG-20010904/DTD/svg10.dtd">
<svg version="1.0" xmlns="http://www.w3.org/2000/svg" width="514pt" height="514pt" viewBox="0 0 514 514" style="" preserveAspectRatio="xMidYMid meet">
<g fill="#fff" stroke="#000000FF">
<path d="M 308.000 194.372 C 296.567 196.953 287.543 204.122 282.308 214.782 L 279.500 220.500 279.500 337.000 L 279.500 453.500 282.308 459.218 C 287.841 470.486 297.702 477.855 310.111 479.995 C 314.517 480.755 342.434 481.004 400.053 480.799 L 483.606 480.500 491.238 476.728 C 503.234 470.798 510.125 461.506 512.131 448.556 C 512.686 444.973 512.953 397.572 512.784 332.500 C 512.506 224.958 512.455 222.396 510.495 217.824 C 505.974 207.283 498.717 200.026 488.176 195.505 C 483.630 193.556 481.134 193.495 398.500 193.315 C 333.856 193.174 312.183 193.427 308.000 194.372 M 479.800 226.200 C 480.702 227.102 481.000 240.054 481.000 278.341 L 481.000 329.282 476.947 324.678 C 465.622 311.811 443.179 309.134 427.921 318.829 C 425.009 320.680 418.719 327.392 410.635 337.276 C 398.933 351.585 396.516 354.000 393.904 354.000 C 393.391 354.000 388.847 350.142 383.806 345.426 C 378.765 340.710 372.556 335.795 370.007 334.504 C 359.576 329.218 346.351 329.255 335.806 334.599 C 333.154 335.942 326.263 341.589 320.493 347.147 L 310.000 357.254 310.000 292.698 C 310.000 235.345 310.175 227.968 311.571 226.571 C 312.975 225.168 321.997 225.000 395.871 225.000 C 458.883 225.000 478.886 225.286 479.800 226.200 "/></g>
<g fill="#fff" stroke="#000000FF">
<path d="M 31.732 2.030 C 24.684 3.227 18.135 6.766 12.451 12.451 C 1.858 23.043 0.669 29.125 1.240 69.815 C 1.588 94.641 1.935 100.237 3.359 104.000 C 7.149 114.010 16.472 123.166 26.500 126.725 C 31.232 128.405 43.581 128.500 257.000 128.500 C 470.419 128.500 482.768 128.405 487.500 126.725 C 497.797 123.070 507.070 113.797 510.725 103.500 C 512.290 99.091 512.500 94.539 512.500 65.000 C 512.500 35.461 512.290 30.909 510.725 26.500 C 507.183 16.521 498.163 7.305 488.000 3.282 C 483.735 1.593 471.826 1.493 260.000 1.360 C 137.075 1.283 34.354 1.584 31.732 2.030 "/></g>
<g fill="#fff" stroke="#000000FF">
<path d="M 12.315 450.093 C 7.925 451.376 3.258 456.327 1.986 461.053 C -0.150 468.986 4.863 477.757 12.791 479.959 C 18.255 481.476 219.556 481.384 224.101 479.861 C 236.904 475.573 238.887 459.899 227.677 451.592 C 224.858 449.503 224.691 449.500 120.177 449.331 C 57.987 449.231 14.207 449.540 12.315 450.093 "/></g>
<g fill="#fff" stroke="#000000FF">
<path d="M 12.315 386.093 C 7.925 387.376 3.258 392.327 1.986 397.053 C -0.150 404.986 4.863 413.757 12.791 415.959 C 18.255 417.476 219.556 417.384 224.101 415.861 C 236.904 411.573 238.887 395.899 227.677 387.592 C 224.858 385.503 224.691 385.500 120.177 385.331 C 57.987 385.231 14.207 385.540 12.315 386.093 "/></g>
<g fill="#fff" stroke="#000000FF">
<path d="M 12.315 322.093 C 7.925 323.376 3.258 328.327 1.986 333.053 C -0.150 340.986 4.863 349.757 12.791 351.959 C 18.255 353.476 219.556 353.384 224.101 351.861 C 236.904 347.573 238.887 331.899 227.677 323.592 C 224.858 321.503 224.691 321.500 120.177 321.331 C 57.987 321.231 14.207 321.540 12.315 322.093 "/></g>
<g fill="#fff" stroke="#000000FF">
<path d="M 12.315 258.093 C 7.925 259.376 3.258 264.327 1.986 269.053 C -0.150 276.986 4.863 285.757 12.791 287.959 C 18.255 289.476 219.556 289.384 224.101 287.861 C 236.904 283.573 238.887 267.899 227.677 259.592 C 224.858 257.503 224.691 257.500 120.177 257.331 C 57.987 257.231 14.207 257.540 12.315 258.093 "/></g>
<g fill="#fff" stroke="#000000FF">
<path d="M 12.315 194.093 C 7.925 195.376 3.258 200.327 1.986 205.053 C -0.150 212.986 4.863 221.757 12.791 223.959 C 18.255 225.476 219.556 225.384 224.101 223.861 C 236.904 219.573 238.887 203.899 227.677 195.592 C 224.858 193.503 224.691 193.500 120.177 193.331 C 57.987 193.231 14.207 193.540 12.315 194.093 "/></g>
</svg>
